<svg xmlns="http://www.w3.org/2000/svg" xmlns:xlink="http://www.w3.org/1999/xlink" viewBox="0 0 617.95 226.77"><defs><style>.cls-1{fill:url(#名称未設定グラデーション_6);}.cls-2{fill:url(#名称未設定グラデーション_14);}.cls-3{fill:url(#名称未設定グラデーション_14-2);}.cls-4{fill:#4b87ff;}</style><linearGradient id="名称未設定グラデーション_6" x1="168.08" y1="72.93" x2="168.08" y2="85.1" gradientUnits="userSpaceOnUse"><stop offset="0" stop-color="#6673ff"/><stop offset="1" stop-color="#706dff"/></linearGradient><linearGradient id="名称未設定グラデーション_14" x1="122.45" y1="28.35" x2="122.45" y2="198.43" gradientUnits="userSpaceOnUse"><stop offset="0" stop-color="#4b87ff"/><stop offset="1" stop-color="#be32ff"/></linearGradient><linearGradient id="名称未設定グラデーション_14-2" x1="77.65" y1="85.69" x2="77.65" y2="141.91" xlink:href="#名称未設定グラデーション_14"/></defs><g id="logo"><path class="cls-1" d="M174.64,74.07a20.39,20.39,0,0,0-7.55-1.14h-9.75l0,12.17h9.73A20.41,20.41,0,0,0,174.64,84a6.18,6.18,0,0,0,4.18-5A6.18,6.18,0,0,0,174.64,74.07Z"/><path class="cls-2" d="M217.76,40.94a12.6,12.6,0,0,0-12.6-12.59H145.49a28.79,28.79,0,0,0-28.76,28.76v4.52a28.62,28.62,0,0,0-17.37-5.85H39.69a12.61,12.61,0,0,0-12.6,12.59v90A12.61,12.61,0,0,0,39.69,171H92.34l35.92,27.44,0-26.7c.24-5,2.76-11.12,6.56-15.78,2.59-3.19,8.11-8.53,16-8.53l54.47,0a12.6,12.6,0,0,0,12.6-12.59ZM96.22,159.51H39.69a1.12,1.12,0,0,1-1.12-1.11v-90a1.12,1.12,0,0,1,1.12-1.11H99.36a17.3,17.3,0,0,1,17.28,17.28l.09,70.73V172.5h0v2.69Zm91.85-41.93c-6.93,0-11.42-6.4-11.42-6.4l-9.43-13.85H157.4l0,6.18s-.09,7.82-5.8,11.73c-5,3.46-8.74,2.34-8.74,2.34l-.14-56.87h24c6.86,0,12.69,1.35,16.85,3.91A16,16,0,0,1,191.43,78h0v.66c0,.1,0,.2,0,.3v.15c0,.1,0,.21,0,.31v.65h0a16,16,0,0,1-7.82,13.36c-.32.2-.66.39-1,.58l16.06,23.59Z"/><path class="cls-3" d="M95.05,85.69c-6.93,0-11.42,6.39-11.42,6.39l-6,8.75-6-8.75s-4.49-6.4-11.42-6.39H49.67l19.15,28.07h0L49.67,141.91H60.26c6.93,0,11.41-6.4,11.41-6.4l6-8.78,6,8.78s4.49,6.4,11.42,6.4h10.59L86.49,113.78h0L105.64,85.7Z"/><path class="cls-4" d="M311.91,147.23H292.39l-4.64-31.72-10.57,30.18H265.49l-10.4-30.18-3.7,31.72H233.6l9-68.42h17.47l10.58,33.87,11.8-33.87h18.8Z"/><path class="cls-4" d="M338.47,136,335,147.23H316L340,78.81h19l25,68.42H362.8l-3.53-11.43Zm16.25-15.38L349,101.76,343,121Z"/><path class="cls-4" d="M545.38,136l-3.52,11.26H523l23.93-68.42h19l25,68.42H569.71l-3.52-11.43Zm16.25-15.38-5.76-18.83L549.94,121Z"/><path class="cls-4" d="M447.39,147.23H429l-19.6-33.69v33.69H391V78.81h17.75L429,113.54V78.81h18.4Z"/><path class="cls-4" d="M505.76,101.67c-4.05-3.61-10.32-8.25-16.51-8.25-10.23,0-14.61,11.09-14.61,18,0,10.06,7.65,22.1,23.38,22.44V121.53H487.87l-3.78-15,32.32-.69v41.43l-18.65.69a56.65,56.65,0,0,1-23-3.61c-12.89-5-19.08-18.14-19.08-30.94,0-23.82,19.94-34.56,36.27-34.56,9.12,0,16.68,2.75,24.42,7.91Z"/></g></svg>